<svg width="163" height="69" viewBox="0 0 163 69" xmlns="http://www.w3.org/2000/svg" xmlns:xlink="http://www.w3.org/1999/xlink"><title>Gold logo</title><defs><path id="a" d="M5.999 7.659V.61H.219v7.05h5.78z"/></defs><g fill="none" fill-rule="evenodd"><path d="M34.074 68.118c-18.179 0-32.914-15.072-32.914-33.671C1.16 15.855 15.895.778 34.074.778c18.178 0 32.914 15.077 32.914 33.669 0 18.599-14.736 33.671-32.914 33.671m0-67.718C15.27.4.026 15.645.026 34.447c0 18.807 15.243 34.05 34.048 34.05 18.806 0 34.048-15.243 34.048-34.05C68.122 15.645 52.88.4 34.074.4" fill="#B39841"/><path d="M34.074 67.362c-16.716 0-30.264-14.737-30.264-32.914 0-18.176 13.548-32.913 30.264-32.913 16.715 0 30.265 14.737 30.265 32.913 0 18.177-13.55 32.914-30.265 32.914m0-66.206c-17.342 0-31.4 14.906-31.4 33.292 0 18.387 14.058 33.292 31.4 33.292s31.4-14.905 31.4-33.292c0-18.386-14.058-33.292-31.4-33.292" fill="#B39841"/><path d="M34.074 66.605c-15.253 0-27.616-14.393-27.616-32.156 0-17.765 12.363-32.157 27.616-32.157 15.252 0 27.617 14.392 27.617 32.157 0 17.763-12.365 32.156-27.617 32.156m0-64.692c-15.879 0-28.752 14.568-28.752 32.536 0 17.967 12.873 32.534 28.752 32.534S62.827 52.416 62.827 34.45c0-17.968-12.874-32.536-28.753-32.536" fill="#B39841"/><path d="M34.074 65.849c-13.788 0-24.967-14.059-24.967-31.4S20.286 3.047 34.074 3.047c13.79 0 24.97 14.06 24.97 31.4 0 17.342-11.18 31.401-24.97 31.401m0-63.18c-14.417 0-26.103 14.229-26.103 31.78 0 17.55 11.686 31.78 26.103 31.78 14.417 0 26.105-14.23 26.105-31.78 0-17.551-11.688-31.78-26.105-31.78" fill="#B39841"/><path d="M34.074 65.09c-12.324 0-22.32-13.717-22.32-30.643 0-16.926 9.996-30.643 22.32-30.643 12.329 0 22.322 13.717 22.322 30.643 0 16.926-9.993 30.644-22.322 30.644m0-61.666c-12.954 0-23.455 13.89-23.455 31.022 0 17.134 10.5 31.023 23.455 31.023 12.954 0 23.456-13.89 23.456-31.023S47.028 3.425 34.074 3.425" fill="#B39841"/><path d="M87.632 2.19l.215 2.477h-.403c-.347-1.383-.923-1.814-2.264-1.814h-.834v7.58c0 .923.215 1.196 1.194 1.196v.332h-4.38v-.332c.965 0 1.18-.273 1.18-1.195V2.853h-.835c-1.341 0-1.916.43-2.262 1.814h-.39l.216-2.478h8.563zm2.377-.101c.535 0 .95.43.95.994 0 .576-.387.981-.978.981-.578 0-.95-.39-.95-.981 0-.563.403-.994.978-.994m1.687 9.527v.344h-3.444v-.344c.647-.058.848-.245.848-.822V6.629c0-.476-.273-.721-.848-.721v-.346c.833-.1 1.715-.245 2.624-.448v5.348c0 .794.07 1.11.82 1.154m.589-5.508v-.504c1.11-.316 1.76-1.123 2.15-2.535h.517v2.233h1.472v.736h-1.472v3.99c0 .679.144.983.563.983.216 0 .518-.203.88-.606l.258.201c-.49 1.039-1.167 1.543-2.017 1.543-1.022 0-1.442-.592-1.442-1.86v-4.18h-.909zm4.902 5.507c.647-.059.85-.245.85-.822V3.501c0-.475-.271-.721-.85-.721v-.33a21.807 21.807 0 0 0 2.564-.463v3.934c.795-.533 1.457-.835 2.209-.835 1.179 0 1.887.677 1.887 1.888v3.488c0 .809.1 1.11.82 1.153v.345h-3.4v-.345c.634-.043.876-.259.876-.822v-3.69c0-.792-.242-1.095-.949-1.095-.518 0-.981.202-1.456.591v4.123c0 .619.233.864.82.893v.345h-3.37v-.345zm12.238-4.179v-.16c0-1.022-.419-1.599-1.096-1.599-.706 0-1.21.649-1.24 1.759h2.336zm-1.182 4.728c-1.615 0-2.753-1.312-2.753-3.474 0-2.178 1.253-3.575 2.898-3.575 1.685 0 2.65 1.037 2.753 2.955h-4.065c.012 1.802.834 2.811 2.016 2.811.677 0 1.285-.377 1.904-1.14l.274.218c-.679 1.47-1.687 2.205-3.027 2.205zm8.922-2.119c0 .649.375 1.05.963 1.05.448 0 .882-.23 1.37-.662V8.287c-1.6.388-2.333.864-2.333 1.758zm4.005.777c0 .289.044.405.203.405.13 0 .26-.102.461-.274l.217.287c-.636.59-1.126.924-1.644.924-.547 0-.85-.334-.908-1.011-.822.65-1.5 1.01-2.292 1.01-1.051 0-1.729-.692-1.729-1.73 0-1.585 1.254-2.033 4.02-2.752V6.8c0-.78-.344-1.139-1.137-1.139-.607 0-.88.245-.922.778-.043.506-.086.909-.778.909-.433 0-.736-.288-.736-.749 0-.82.98-1.485 2.552-1.485 1.858 0 2.693.707 2.693 2.263v3.444zm1.285.793c.648-.059.85-.245.85-.822V6.628c0-.477-.272-.72-.85-.72v-.345c.938-.116 1.785-.246 2.566-.448v.806c.777-.518 1.44-.835 2.205-.835 1.18 0 1.889.677 1.889 1.888v3.488c0 .809.099 1.11.819 1.153v.345h-3.4v-.345c.633-.043.878-.259.878-.822v-3.69c0-.792-.245-1.095-.95-1.095-.52 0-.982.202-1.456.591v4.123c0 .619.232.864.821.893v.345h-3.372v-.345zM81.446 24.343c0 3.013.952 4.554 2.753 4.554 1.79 0 2.74-1.541 2.74-4.54 0-3.011-.95-4.54-2.74-4.54-1.785 0-2.753 1.529-2.753 4.526m7.555.03c0 3.126-1.889 5.115-4.802 5.115-2.91 0-4.813-1.99-4.813-5.131 0-3.126 1.904-5.117 4.813-5.117 2.913 0 4.802 1.99 4.802 5.132m2.709-4.988c.533 0 .952.433.952.994 0 .579-.39.982-.98.982-.577 0-.952-.39-.952-.982 0-.561.402-.994.98-.994m1.687 9.527v.346H89.95v-.346c.65-.057.85-.245.85-.82v-4.166c0-.476-.273-.72-.85-.72v-.347c.838-.1 1.714-.245 2.624-.447v5.347c0 .794.071 1.111.822 1.153m4.872-6.499c.605 0 .98.331.98.879 0 .533-.302.834-.778.834-.419 0-.636-.446-1.01-.446-.229 0-.533.189-.762.548v3.53c0 .823.1 1.111.935 1.155v.346h-3.558v-.346c.647-.058.849-.245.849-.822v-4.166c0-.475-.275-.72-.849-.72v-.347c.791-.086 1.67-.23 2.637-.445v1.138c.52-.779.967-1.138 1.556-1.138m5.535 2.32v-.16c0-1.023-.419-1.598-1.095-1.598-.707 0-1.21.648-1.242 1.758h2.337zm-1.182 4.728c-1.614 0-2.753-1.312-2.753-3.473 0-2.179 1.254-3.576 2.898-3.576 1.685 0 2.651 1.037 2.752 2.955h-4.064c.012 1.802.834 2.81 2.017 2.81.676 0 1.284-.375 1.903-1.138l.274.217c-.677 1.469-1.687 2.205-3.027 2.205zm5.319-2.119c0 .65.373 1.053.964 1.053.447 0 .88-.231 1.37-.665v-2.146c-1.6.388-2.334.864-2.334 1.758zm4.006.779c0 .287.044.403.202.403.129 0 .258-.101.46-.273l.218.287c-.635.59-1.125.922-1.643.922-.547 0-.852-.331-.908-1.01-.822.65-1.501 1.01-2.292 1.01-1.053 0-1.73-.691-1.73-1.73 0-1.585 1.253-2.033 4.022-2.752v-.88c0-.778-.347-1.14-1.138-1.14-.608 0-.88.247-.924.78-.044.505-.086.91-.777.91-.434 0-.735-.29-.735-.751 0-.82.978-1.484 2.55-1.484 1.86 0 2.695.705 2.695 2.262v3.446zm7.308-.851c-.706 1.456-1.701 2.19-3.04 2.19-1.702 0-2.783-1.24-2.783-3.243 0-2.233 1.428-3.805 3.23-3.805 1.295 0 2.174.693 2.174 1.471 0 .46-.33.793-.82.793-.518 0-.693-.245-.893-.793-.205-.533-.346-.85-.895-.85-.865 0-1.341.75-1.341 2.175 0 1.859.882 2.985 2.105 2.985.735 0 1.354-.39 1.976-1.154l.287.23zm.534 1.643c.648-.057.85-.245.85-.82v-7.296c0-.473-.272-.72-.85-.72v-.33a21.4 21.4 0 0 0 2.566-.463v3.935c.792-.533 1.455-.837 2.205-.837 1.18 0 1.889.679 1.889 1.89v3.487c0 .81.098 1.11.82 1.154v.344h-3.4v-.344c.634-.043.877-.259.877-.82V24.4c0-.793-.243-1.095-.95-1.095-.518 0-.982.202-1.456.59v4.123c0 .62.23.865.821.894v.344h-3.372v-.344zm8.014-5.506v-.504c1.11-.317 1.757-1.124 2.146-2.536h.52v2.233h1.47v.736h-1.47v3.991c0 .678.145.982.562.982.217 0 .518-.203.88-.606l.26.201c-.492 1.036-1.168 1.54-2.02 1.54-1.022 0-1.44-.588-1.44-1.856v-4.18h-.908zm6.515 3.935c0 .65.375 1.053.965 1.053.446 0 .88-.231 1.37-.665v-2.146c-1.6.388-2.335.864-2.335 1.758zm4.007.779c0 .287.043.403.2.403.132 0 .26-.101.46-.273l.22.287c-.637.59-1.127.922-1.645.922-.547 0-.85-.331-.907-1.01-.823.65-1.5 1.01-2.292 1.01-1.054 0-1.73-.691-1.73-1.73 0-1.585 1.254-2.033 4.022-2.752v-.88c0-.778-.346-1.14-1.14-1.14-.606 0-.879.247-.92.78-.045.505-.087.91-.779.91-.433 0-.736-.29-.736-.751 0-.82.98-1.484 2.552-1.484 1.858 0 2.695.705 2.695 2.262v3.446zm3.041-8.736c.534 0 .952.433.952.994 0 .579-.39.982-.98.982-.577 0-.954-.39-.954-.982 0-.561.405-.994.982-.994m1.687 9.527v.346h-3.444v-.346c.646-.057.848-.245.848-.82v-4.166c0-.476-.273-.72-.848-.72v-.347c.834-.1 1.712-.245 2.62-.447v5.347c0 .794.073 1.111.824 1.153m5.276-6.543v2.293h-.36c-.318-1.124-.952-1.717-1.761-1.717-.663 0-1.022.332-1.022.807 0 .621.548.837 1.428 1.27 1.338.662 2.032 1.225 2.032 2.349 0 1.298-.821 2.073-2.149 2.073-.964 0-1.513-.344-1.715-.344-.23 0-.36.1-.49.36h-.347v-2.421h.347c.503 1.225 1.225 1.845 2.09 1.845.635 0 1.007-.347 1.007-.892 0-.78-.834-.967-1.772-1.528-1.008-.607-1.585-1.04-1.585-2.063 0-1.195.792-1.988 2.019-1.988.82 0 1.397.303 1.628.303.16 0 .259-.101.332-.347h.318zM82.34 45.026c0 .936.217 1.197 1.225 1.197v.33h-4.41v-.33c1.01 0 1.24-.26 1.24-1.197v-6.717c0-.937-.23-1.196-1.24-1.196v-.33h4.41v.33c-1.008 0-1.225.259-1.225 1.196v2.87h4.166v-2.87c0-.937-.215-1.196-1.225-1.196v-.33h4.412v.33c-1.01 0-1.24.259-1.24 1.196v6.717c0 .936.23 1.197 1.24 1.197v.33H85.28v-.33c1.01 0 1.225-.26 1.225-1.197v-3.038H82.34v3.038zm11.473 1.139c1.01 0 1.428-.937 1.428-2.941 0-2.002-.417-2.954-1.428-2.954-1.008 0-1.425.952-1.425 2.954 0 2.004.417 2.941 1.425 2.941m3.216-3.013c0 2.163-1.37 3.59-3.156 3.59-1.917 0-3.258-1.411-3.258-3.432 0-2.163 1.37-3.602 3.17-3.602 1.888 0 3.244 1.428 3.244 3.444m5.736 2.768c-.764.547-1.456.836-2.206.836-1.196 0-1.873-.677-1.873-1.888v-3.474c0-.807-.114-1.124-.836-1.167v-.333h2.537v4.873c0 .764.23 1.08.922 1.08.475 0 .952-.2 1.47-.59v-3.863c0-.807-.102-1.124-.82-1.167v-.333h2.521v5.334c0 .491.272.72.851.72v.331c-.693.074-1.556.232-2.566.462v-.822zm7.798-6.254v2.291h-.36c-.319-1.124-.95-1.715-1.758-1.715-.665 0-1.025.33-1.025.807 0 .619.548.836 1.428 1.268 1.34.662 2.033 1.224 2.033 2.348 0 1.298-.822 2.076-2.149 2.076-.965 0-1.513-.346-1.715-.346-.23 0-.36.101-.49.362h-.346v-2.422h.346c.505 1.225 1.225 1.843 2.092 1.843.634 0 1.006-.345 1.006-.891 0-.777-.834-.966-1.77-1.528-1.01-.606-1.587-1.037-1.587-2.063 0-1.196.791-1.987 2.017-1.987.822 0 1.398.301 1.63.301.157 0 .26-.1.33-.344h.318zm5.219 2.363v-.16c0-1.022-.42-1.599-1.096-1.599-.707 0-1.21.65-1.24 1.759h2.336zm-1.182 4.727c-1.614 0-2.754-1.311-2.754-3.473 0-2.178 1.253-3.574 2.897-3.574 1.686 0 2.653 1.036 2.754 2.954h-4.064c.014 1.802.835 2.81 2.017 2.81.676 0 1.282-.374 1.903-1.139l.274.217c-.678 1.472-1.687 2.205-3.027 2.205zm8.3-7.09v2.291h-.36c-.316-1.124-.95-1.715-1.758-1.715-.663 0-1.023.33-1.023.807 0 .619.547.836 1.428 1.268 1.34.662 2.031 1.224 2.031 2.348 0 1.298-.821 2.076-2.147 2.076-.966 0-1.514-.346-1.717-.346-.23 0-.358.101-.488.362h-.346v-2.422h.346c.504 1.225 1.225 1.843 2.09 1.843.634 0 1.007-.345 1.007-.891 0-.777-.833-.966-1.77-1.528-1.01-.606-1.586-1.037-1.586-2.063 0-1.196.79-1.987 2.017-1.987.822 0 1.397.301 1.628.301.16 0 .26-.1.332-.344h.317zm8.087 6.499c1.01 0 1.43-.937 1.43-2.941 0-2.002-.42-2.954-1.43-2.954-1.008 0-1.425.952-1.425 2.954 0 2.004.417 2.941 1.425 2.941m3.216-3.013c0 2.163-1.37 3.59-3.156 3.59-1.92 0-3.26-1.411-3.26-3.432 0-2.163 1.369-3.602 3.173-3.602 1.887 0 3.243 1.428 3.243 3.444m3.659-3.257h1.356v.736h-1.356v4.252c0 1.01.187 1.295 1.197 1.31v.361h-4.078v-.36c.864-.072 1.124-.331 1.124-1.111v-4.452h-1.111v-.736h1.111v-.13c0-2.032 1.008-3.184 2.623-3.184 1.124 0 1.744.446 1.744 1.08 0 .376-.274.635-.692.635-.418 0-.62-.217-.821-.65-.145-.33-.26-.504-.55-.504-.3 0-.547.417-.547 1.182v1.57zm5.579.807v-.503c1.11-.32 1.757-1.124 2.146-2.538h.518v2.233h1.475v.736h-1.475v3.992c0 .677.147.982.565.982.217 0 .518-.203.879-.606l.26.2c-.49 1.038-1.167 1.543-2.02 1.543-1.022 0-1.44-.59-1.44-1.858v-4.181h-.908zm4.901 5.506c.647-.059.85-.246.85-.822v-7.292c0-.475-.273-.721-.85-.721v-.33a21.48 21.48 0 0 0 2.567-.463v3.936c.79-.535 1.453-.837 2.203-.837 1.182 0 1.889.677 1.889 1.888v3.489c0 .808.1 1.109.82 1.152v.345h-3.4v-.345c.634-.043.879-.259.879-.822v-3.69c0-.792-.245-1.093-.95-1.093-.52 0-.982.2-1.457.59v4.122c0 .619.23.864.822.893v.345h-3.373v-.345z" fill="#FFF"/><g transform="translate(156.425 39.098)"><mask id="b" fill="#fff"><use xlink:href="#a"/></mask><path d="M4.154 2.93v-.159c0-1.022-.418-1.598-1.096-1.598-.706 0-1.21.65-1.239 1.758h2.335zM2.973 7.66C1.358 7.659.219 6.347.219 4.185.219 2.007 1.473.611 3.117.611c1.685 0 2.65 1.036 2.752 2.954H1.804c.015 1.802.838 2.81 2.018 2.81.677 0 1.284-.374 1.903-1.138l.274.217C5.32 6.925 4.312 7.659 2.973 7.659z" fill="#FFF" mask="url(#b)"/></g><path d="M81.446 58.937c0 3.012.952 4.552 2.753 4.552 1.79 0 2.74-1.54 2.74-4.538 0-3.013-.95-4.542-2.74-4.542-1.785 0-2.753 1.529-2.753 4.528m7.555.028c0 3.126-1.889 5.117-4.802 5.117-2.91 0-4.813-1.991-4.813-5.131 0-3.128 1.904-5.117 4.813-5.117 2.913 0 4.802 1.99 4.802 5.13m2.709-4.986c.533 0 .952.431.952.994 0 .577-.39.982-.98.982-.577 0-.952-.392-.952-.982 0-.563.402-.994.98-.994m1.687 9.527v.345H89.95v-.345c.65-.057.85-.245.85-.822v-4.165c0-.476-.273-.72-.85-.72v-.346a26.999 26.999 0 0 0 2.624-.447v5.348c0 .79.071 1.109.822 1.152m4.872-6.5c.605 0 .98.33.98.878 0 .536-.302.836-.778.836-.419 0-.636-.447-1.01-.447-.229 0-.533.188-.762.55v3.53c0 .82.1 1.11.935 1.154v.344h-3.558v-.344c.647-.06.849-.245.849-.824v-4.165c0-.476-.275-.72-.849-.72v-.345c.791-.087 1.67-.23 2.637-.447v1.139c.52-.779.967-1.139 1.556-1.139m5.535 2.32v-.16c0-1.021-.419-1.598-1.095-1.598-.707 0-1.21.65-1.242 1.758h2.337zm-1.182 4.728c-1.614 0-2.753-1.312-2.753-3.473 0-2.179 1.254-3.575 2.898-3.575 1.685 0 2.651 1.036 2.752 2.954h-4.064c.012 1.802.834 2.812 2.017 2.812.676 0 1.284-.376 1.903-1.141l.274.218c-.677 1.469-1.687 2.205-3.027 2.205zm5.319-2.119c0 .65.373 1.053.964 1.053.447 0 .88-.231 1.37-.665v-2.145c-1.6.386-2.334.864-2.334 1.757zm4.006.78c0 .285.044.402.202.402.129 0 .258-.101.46-.273l.218.287c-.635.59-1.125.922-1.643.922-.547 0-.852-.332-.908-1.01-.822.65-1.501 1.01-2.292 1.01-1.053 0-1.73-.691-1.73-1.73 0-1.584 1.253-2.032 4.022-2.753v-.877c0-.78-.347-1.141-1.138-1.141-.608 0-.88.246-.924.78-.044.503-.086.908-.777.908-.434 0-.735-.288-.735-.75 0-.82.978-1.483 2.55-1.483 1.86 0 2.695.704 2.695 2.26v3.448zm7.308-.851c-.706 1.454-1.701 2.19-3.04 2.19-1.702 0-2.783-1.241-2.783-3.243 0-2.236 1.428-3.805 3.23-3.805 1.295 0 2.174.691 2.174 1.471 0 .46-.33.791-.82.791-.518 0-.693-.244-.893-.79-.205-.534-.346-.852-.895-.852-.865 0-1.341.749-1.341 2.175 0 1.86.882 2.984 2.105 2.984.735 0 1.354-.388 1.976-1.154l.287.233zm.534 1.642c.648-.059.85-.244.85-.822V55.39c0-.476-.272-.72-.85-.72v-.33a21.125 21.125 0 0 0 2.566-.464v3.936c.792-.534 1.455-.837 2.205-.837 1.18 0 1.889.678 1.889 1.889v3.489c0 .807.098 1.108.82 1.152v.344h-3.4v-.344c.634-.044.877-.26.877-.822v-3.69c0-.793-.243-1.094-.95-1.094-.518 0-.982.2-1.456.588v4.125c0 .618.23.865.821.893v.344h-3.372v-.344zm8.014-5.507v-.502c1.11-.318 1.757-1.125 2.146-2.539h.52v2.233h1.47v.737h-1.47v3.991c0 .678.145.983.562.983.217 0 .518-.203.88-.606l.26.2c-.492 1.037-1.168 1.543-2.02 1.543-1.022 0-1.44-.591-1.44-1.858v-4.182h-.908zm6.515 3.936c0 .65.375 1.053.965 1.053.446 0 .88-.231 1.37-.665v-2.145c-1.6.386-2.335.864-2.335 1.757zm4.007.78c0 .285.043.402.2.402.132 0 .26-.101.46-.273l.22.287c-.637.59-1.127.922-1.645.922-.547 0-.85-.332-.907-1.01-.823.65-1.5 1.01-2.292 1.01-1.054 0-1.73-.691-1.73-1.73 0-1.584 1.254-2.032 4.022-2.753v-.877c0-.78-.346-1.141-1.14-1.141-.606 0-.879.246-.92.78-.045.503-.087.908-.779.908-.433 0-.736-.288-.736-.75 0-.82.98-1.483 2.552-1.483 1.858 0 2.695.704 2.695 2.26v3.448zm5.879-5.754v2.294h-.36c-.316-1.125-.95-1.717-1.758-1.717-.662 0-1.023.333-1.023.808 0 .62.547.836 1.428 1.27 1.338.662 2.031 1.222 2.031 2.348 0 1.299-.82 2.074-2.148 2.074-.966 0-1.512-.344-1.713-.344-.233 0-.361.098-.49.36h-.347v-2.424h.347c.502 1.227 1.225 1.847 2.089 1.847.634 0 1.008-.347 1.008-.892 0-.78-.835-.967-1.773-1.529-1.008-.606-1.585-1.037-1.585-2.062 0-1.195.791-1.988 2.018-1.988.822 0 1.398.303 1.628.303.16 0 .26-.101.332-.348h.316zM44.895 24.934L35.83 50.719c-.17.465-.59 1.053-1.215 1.211-.14.038-.311.055-.507.03-.266-.04-.578-.164-.913-.457l-.006-.005c-4.887-4.513-7.574-9.995-7.761-15.857a20.567 20.567 0 0 1 1.407-8.174 20.659 20.659 0 0 1 1.845-3.635l3.374 18.475-2.111 4.097a25.828 25.828 0 0 0 3.851 4.431c.223.195.426.272.6.227.257-.064.492-.376.592-.647l9.062-25.78a.449.449 0 1 1 .847.299zm-14.212-3.72c.209.157.423.31.637.457l2.975 16.284-1.416 2.753-3.317-18.147c.357-.468.73-.918 1.121-1.347zm3.87 2.21l1.891 10.357-1.324 2.576-2.538-13.884c.66.38 1.321.703 1.97.952zm1.81.485c.206.074.675.172 1.346.198l.967 5.306.02.002-1.427 2.77-1.533-8.395c.21.05.42.088.627.12zm2.66.151c1.698-.17 2.274-1.176 3.198-1.449a4.62 4.62 0 0 0-.25.441l-2.465 4.788-.687-3.759c.068-.004.133-.01.204-.02zm8.91.451l.172-.33c.93-1.851.706-6.32-2.877-7.696-3.878-1.488-6.395.377-9.604-.643-2.498-.795-5.554-4.49-6.579-6.112-.743-1.177-1.311-.773-1.568-.46-.428.526-2.527 2.924-2.797 5.557a19.995 19.995 0 0 0 1.838 2.49c-3.921 5.71-8.21 20.258.258 35.761l-.003.009c.028.044.055.095.084.142.017.034.037.066.053.1.425.784.52 1.543.47 2.292-.048.761.233 1.576.84 2.088-.22.457-.437.94-.363.966.31.178 1.097.226 1.554.231 2.328.028 5.244-2.24 6.562-4.891 1.253.537 2.68.858 4.305.866l7.716-29.55.024-.627-.085-.193z" fill="#FFF"/></g></svg>